# xmcd
#
# Track frame offsets:
#	150
#	12861
#	30121
#	41667
#	60752
#	74382
#	87958
#	111225
#	126308
#	145702
#	172105
#
# Disc length: 2524 seconds
# Revision: 0
# Processed by: cddbd v1.5.2PL0 Copyright (c) Steve Scherf et al.
# Submitted via: dBpowerAMP V12.0
#
DISCID=8a09da0b
DTITLE=Saint Jude - Saint Jude II
DYEAR=2013
DGENRE=Country Soul
TTITLE0=Rivers Of Music
TTITLE1=Only You I Need
TTITLE2=Set Her Free
TTITLE3=Laurelie
TTITLE4=Afraid To Change
TTITLE5=Drifter's Ballad
TTITLE6=Remember
TTITLE7=This Time Tomorrow
TTITLE8=Memphis
TTITLE9=Heavens Above Me
TTITLE10=Stokes Roft
EXTD=
EXTT0=
EXTT1=
EXTT2=
EXTT3=
EXTT4=
EXTT5=
EXTT6=
EXTT7=
EXTT8=
EXTT9=
EXTT10=
PLAYORDER=
